<svg xmlns="http://www.w3.org/2000/svg" version="1.1" viewBox="0.00 0.00 1024.00 1024.00">
  <g stroke-width="5.00" fill="none" stroke-linecap="butt">
    <path stroke="#626755" vector-effect="non-scaling-stroke" d="   M 354.78 538.63   Q 433.48 554.02 511.98 570.39   C 513.62 570.73 518.21 569.05 520.17 568.67   Q 602.48 552.67 684.36 535.63   A 0.76 0.76 0.0 0 0 684.96 534.89   L 684.85 308.07   A 0.75 0.74 -90.0 0 0 684.11 307.32   C 678.86 307.32 674.13 306.92 668.63 305.94   C 622.05 297.66 575.40 291.43 519.22 283.52   Q 509.95 282.22 505.25 282.91   Q 422.45 295.13 339.96 307.26   Q 339.41 307.34 339.41 307.90   L 339.39 534.62   A 1.21 1.20 -84.5 0 0 340.36 535.81   Q 347.39 537.19 354.78 538.63"/>
    <path stroke="#626755" vector-effect="non-scaling-stroke" d="   M 139.76 682.92   Q 149.05 686.79 151.45 695.00   C 153.93 703.45 150.47 713.69 141.61 716.40   Q 137.52 717.65 132.28 717.43   C 120.07 716.91 118.16 705.35 118.49 695.27   A 0.45 0.45 0.0 0 0 118.03 694.80   L 92.98 695.35   Q 92.61 695.36 92.59 695.72   Q 92.09 703.08 93.45 710.18   C 96.85 727.85 111.20 738.86 129.01 740.69   C 156.03 743.45 177.14 727.01 176.32 698.98   Q 175.62 674.73 154.68 662.98   Q 147.76 659.11 141.96 657.56   C 135.43 655.81 128.82 653.83 124.20 649.40   C 118.92 644.34 116.08 634.93 120.22 628.34   C 123.89 622.51 132.09 620.49 138.38 622.35   C 146.58 624.77 150.98 632.45 151.30 640.84   A 0.69 0.68 88.3 0 0 151.99 641.50   L 173.74 641.24   Q 174.18 641.23 174.19 640.79   Q 174.30 633.08 173.75 629.98   C 169.06 603.87 144.90 592.72 120.76 600.21   C 90.12 609.73 83.70 647.95 108.62 667.64   C 118.55 675.48 128.88 678.40 139.76 682.92"/>
    <path stroke="#626755" vector-effect="non-scaling-stroke" d="   M 472.08 649.81   C 486.63 617.19 528.30 615.57 552.54 637.63   A 0.87 0.87 0.0 0 0 553.85 637.46   L 566.55 618.15   Q 566.83 617.73 566.43 617.41   Q 545.21 600.03 518.51 598.66   C 477.90 596.57 442.03 628.88 442.55 669.80   C 443.13 715.38 484.13 748.00 528.28 740.67   C 542.24 738.35 554.89 731.62 565.68 722.56   A 0.99 0.99 0.0 0 0 565.92 721.35   Q 560.95 711.66 554.68 702.78   A 0.82 0.82 0.0 0 0 553.49 702.62   C 542.25 711.80 527.67 718.28 512.84 717.67   C 478.92 716.27 458.59 680.04 472.08 649.81"/>
    <path stroke="#626755" vector-effect="non-scaling-stroke" d="   M 215.96 624.09   A 0.62 0.62 0.0 0 1 216.58 624.71   L 216.45 739.28   A 0.84 0.83 0.3 0 0 217.28 740.11   L 239.72 740.36   A 1.47 1.46 4.5 0 0 241.18 739.12   Q 241.88 734.56 241.87 729.24   Q 241.77 676.69 241.70 624.05   Q 241.69 623.41 242.33 623.42   L 274.61 624.00   Q 274.97 624.00 274.97 623.64   L 274.92 599.68   A 0.50 0.49 90.0 0 0 274.43 599.18   L 184.71 599.00   Q 184.18 599.00 184.18 599.54   L 184.11 623.47   Q 184.11 624.08 184.72 624.08   L 215.96 624.09"/>
    <path stroke="#626755" vector-effect="non-scaling-stroke" d="   M 428.0441 679.8349   A 73.85 71.32 7.7 0 0 364.4159 599.2631   A 73.85 71.32 7.7 0 0 281.6759 660.0451   A 73.85 71.32 7.7 0 0 345.3041 740.6169   A 73.85 71.32 7.7 0 0 428.0441 679.8349"/>
    <path stroke="#626755" vector-effect="non-scaling-stroke" d="   M 896.85 696.37   C 915.84 691.03 929.39 674.34 930.15 654.52   Q 931.19 627.68 910.86 610.93   C 898.47 600.72 885.36 599.46 870.50 599.37   Q 847.31 599.24 824.06 599.21   A 0.47 0.47 0.0 0 0 823.59 599.68   L 823.08 738.28   Q 823.07 740.49 825.28 740.49   L 847.15 740.50   A 1.16 1.15 -89.7 0 0 848.30 739.35   L 848.50 700.71   A 0.54 0.54 0.0 0 1 849.04 700.17   L 869.56 700.25   Q 870.09 700.26 870.35 700.71   L 892.53 739.24   A 1.72 1.70 -14.7 0 0 894.02 740.10   L 923.04 740.22   A 0.51 0.51 0.0 0 0 923.47 739.44   L 896.66 696.86   Q 896.43 696.49 896.85 696.37"/>
    <path stroke="#626755" vector-effect="non-scaling-stroke" d="   M 738.76 624.33   A 0.54 0.54 0.0 0 1 739.30 623.79   L 800.99 623.41   A 0.54 0.54 0.0 0 0 801.52 622.88   L 801.65 599.85   A 0.54 0.54 0.0 0 0 801.11 599.31   L 714.56 599.63   A 0.54 0.54 0.0 0 0 714.02 600.17   L 714.04 740.03   A 0.54 0.54 0.0 0 0 714.58 740.57   L 801.16 740.26   A 0.54 0.54 0.0 0 0 801.70 739.72   L 801.62 716.75   A 0.54 0.54 0.0 0 0 801.08 716.21   L 739.31 716.53   A 0.54 0.54 0.0 0 1 738.77 715.99   L 738.81 681.87   A 0.54 0.54 0.0 0 1 739.35 681.33   L 800.21 681.16   A 0.54 0.54 0.0 0 0 800.75 680.62   L 800.76 657.34   A 0.54 0.54 0.0 0 0 800.22 656.80   L 739.27 656.98   A 0.54 0.54 0.0 0 1 738.73 656.44   L 738.76 624.33"/>
    <path stroke="#626755" vector-effect="non-scaling-stroke" d="   M 610.49 665.76   L 611.34 600.29   A 0.55 0.55 0.0 0 0 610.79 599.74   L 586.20 599.66   Q 585.81 599.66 585.81 600.05   L 585.81 739.30   Q 585.81 739.78 586.30 739.78   L 610.38 739.74   Q 611.00 739.74 611.00 739.12   L 610.95 705.12   Q 610.95 704.68 611.22 704.34   L 626.57 685.13   A 0.30 0.30 0.0 0 1 627.05 685.15   L 663.80 739.76   A 1.46 1.45 72.7 0 0 665.03 740.41   L 693.02 740.22   A 0.53 0.53 0.0 0 0 693.47 739.43   Q 691.64 736.29 689.46 733.06   Q 666.96 699.81 643.93 666.99   A 1.59 1.58 -44.0 0 1 643.97 665.11   L 690.95 603.37   A 1.90 1.90 0.0 0 0 689.46 600.32   L 663.18 600.12   Q 662.37 600.11 661.88 600.75   Q 639.55 629.81 617.05 659.08   Q 614.35 662.60 611.43 666.10   A 0.53 0.53 0.0 0 1 610.49 665.76"/>
    <path stroke="#873c28" vector-effect="non-scaling-stroke" d="   M 393.98 313.90   C 414.69 317.36 435.43 320.66 456.07 324.57   Q 483.11 329.69 510.29 333.95   Q 513.25 334.41 514.51 334.22   C 555.31 327.91 595.97 320.43 636.73 313.96   A 0.17 0.17 0.0 0 0 636.73 313.62   Q 577.29 304.20 518.48 295.67   Q 511.76 294.70 503.25 295.92   Q 446.36 304.06 389.70 313.13   A 0.10 0.09 42.9 0 0 389.71 313.32   Q 391.80 313.54 393.98 313.90"/>
    <path stroke="#873c28" vector-effect="non-scaling-stroke" d="   M 390.02 427.52   A 0.89 0.89 0.0 0 0 391.11 426.93   L 404.06 386.23   A 0.89 0.89 0.0 0 1 405.10 385.64   L 504.44 407.59   A 0.89 0.89 0.0 0 0 505.52 406.72   L 505.50 347.57   A 0.89 0.89 0.0 0 0 504.77 346.70   L 353.57 318.90   A 0.89 0.89 0.0 0 0 352.51 319.77   L 352.02 415.87   A 0.89 0.89 0.0 0 0 352.67 416.73   L 390.02 427.52"/>
    <path stroke="#522312" vector-effect="non-scaling-stroke" d="   M 617.33 388.01   Q 624.94 408.16 630.72 428.88   A 1.71 1.70 74.1 0 0 632.83 430.06   L 670.31 419.42   A 1.35 1.34 82.7 0 0 671.29 418.15   L 672.67 320.86   Q 672.69 319.47 671.32 319.71   L 518.69 345.97   A 0.63 0.63 0.0 0 0 518.17 346.59   L 518.25 407.30   A 0.52 0.52 0.0 0 0 518.86 407.81   Q 567.97 398.94 616.57 387.60   A 0.65 0.65 0.0 0 1 617.33 388.01"/>
    <path stroke="#873c28" vector-effect="non-scaling-stroke" d="   M 406.43 482.45   L 372.52 476.68   Q 371.35 476.48 371.33 475.30   L 370.51 434.77   A 0.67 0.67 0.0 0 0 369.99 434.13   L 353.97 430.18   Q 352.55 429.84 352.55 431.29   L 352.38 524.35   A 0.67 0.66 5.9 0 0 352.91 525.00   L 505.28 556.05   A 0.55 0.55 0.0 0 0 505.94 555.51   L 505.69 421.79   A 1.49 1.48 -83.7 0 0 504.53 420.34   L 415.30 400.47   Q 414.80 400.36 414.62 400.84   Q 409.79 413.61 405.40 426.60   Q 404.60 428.96 404.84 431.49   Q 407.13 456.44 407.35 481.67   Q 407.36 482.61 406.43 482.45"/>
    <path stroke="#7e2d1d" vector-effect="non-scaling-stroke" d="   M 615.37 480.30   Q 617.53 457.76 617.93 435.12   Q 617.99 431.49 617.01 428.01   Q 613.42 415.26 609.18 402.83   A 0.81 0.80 74.8 0 0 608.26 402.30   L 519.46 420.65   A 1.16 1.15 -5.8 0 0 518.53 421.78   L 518.54 555.24   A 0.36 0.35 84.6 0 0 518.96 555.59   Q 595.30 541.24 671.35 525.40   Q 671.83 525.31 671.83 524.81   L 671.73 431.72   A 0.78 0.77 -8.4 0 0 670.73 430.98   L 654.10 436.02   A 0.71 0.71 0.0 0 0 653.60 436.67   L 651.86 477.98   A 0.75 0.74 -0.4 0 1 651.16 478.69   L 615.94 480.90   A 0.54 0.54 0.0 0 1 615.37 480.30"/>
    <path stroke="#626755" vector-effect="non-scaling-stroke" d="   M 343.91 623.98   C 319.54 628.68 304.93 648.02 306.62 672.73   Q 307.55 686.46 314.50 696.21   Q 325.57 711.73 343.07 715.75   C 378.05 723.79 407.94 695.94 402.19 660.56   Q 400.30 648.94 392.56 640.24   Q 373.10 618.36 343.91 623.98"/>
    <path stroke="#626755" vector-effect="non-scaling-stroke" d="   M 848.82 624.59   L 848.64 675.29   A 0.83 0.83 0.0 0 0 849.47 676.12   L 878.15 676.22   A 27.97 26.02 0.2 0 0 906.21 650.30   L 906.21 649.98   A 27.97 26.02 0.2 0 0 878.33 623.86   L 849.65 623.76   A 0.83 0.83 0.0 0 0 848.82 624.59"/>
  </g>
  <path fill="#98bba7" d="   M 0.00 0.00   L 1024.00 0.00   L 1024.00 1024.00   L 0.00 1024.00   L 0.00 0.00   Z   M 354.78 538.63   Q 433.48 554.02 511.98 570.39   C 513.62 570.73 518.21 569.05 520.17 568.67   Q 602.48 552.67 684.36 535.63   A 0.76 0.76 0.0 0 0 684.96 534.89   L 684.85 308.07   A 0.75 0.74 -90.0 0 0 684.11 307.32   C 678.86 307.32 674.13 306.92 668.63 305.94   C 622.05 297.66 575.40 291.43 519.22 283.52   Q 509.95 282.22 505.25 282.91   Q 422.45 295.13 339.96 307.26   Q 339.41 307.34 339.41 307.90   L 339.39 534.62   A 1.21 1.20 -84.5 0 0 340.36 535.81   Q 347.39 537.19 354.78 538.63   Z   M 139.76 682.92   Q 149.05 686.79 151.45 695.00   C 153.93 703.45 150.47 713.69 141.61 716.40   Q 137.52 717.65 132.28 717.43   C 120.07 716.91 118.16 705.35 118.49 695.27   A 0.45 0.45 0.0 0 0 118.03 694.80   L 92.98 695.35   Q 92.61 695.36 92.59 695.72   Q 92.09 703.08 93.45 710.18   C 96.85 727.85 111.20 738.86 129.01 740.69   C 156.03 743.45 177.14 727.01 176.32 698.98   Q 175.62 674.73 154.68 662.98   Q 147.76 659.11 141.96 657.56   C 135.43 655.81 128.82 653.83 124.20 649.40   C 118.92 644.34 116.08 634.93 120.22 628.34   C 123.89 622.51 132.09 620.49 138.38 622.35   C 146.58 624.77 150.98 632.45 151.30 640.84   A 0.69 0.68 88.3 0 0 151.99 641.50   L 173.74 641.24   Q 174.18 641.23 174.19 640.79   Q 174.30 633.08 173.75 629.98   C 169.06 603.87 144.90 592.72 120.76 600.21   C 90.12 609.73 83.70 647.95 108.62 667.64   C 118.55 675.48 128.88 678.40 139.76 682.92   Z   M 472.08 649.81   C 486.63 617.19 528.30 615.57 552.54 637.63   A 0.87 0.87 0.0 0 0 553.85 637.46   L 566.55 618.15   Q 566.83 617.73 566.43 617.41   Q 545.21 600.03 518.51 598.66   C 477.90 596.57 442.03 628.88 442.55 669.80   C 443.13 715.38 484.13 748.00 528.28 740.67   C 542.24 738.35 554.89 731.62 565.68 722.56   A 0.99 0.99 0.0 0 0 565.92 721.35   Q 560.95 711.66 554.68 702.78   A 0.82 0.82 0.0 0 0 553.49 702.62   C 542.25 711.80 527.67 718.28 512.84 717.67   C 478.92 716.27 458.59 680.04 472.08 649.81   Z   M 215.96 624.09   A 0.62 0.62 0.0 0 1 216.58 624.71   L 216.45 739.28   A 0.84 0.83 0.3 0 0 217.28 740.11   L 239.72 740.36   A 1.47 1.46 4.5 0 0 241.18 739.12   Q 241.88 734.56 241.87 729.24   Q 241.77 676.69 241.70 624.05   Q 241.69 623.41 242.33 623.42   L 274.61 624.00   Q 274.97 624.00 274.97 623.64   L 274.92 599.68   A 0.50 0.49 90.0 0 0 274.43 599.18   L 184.71 599.00   Q 184.18 599.00 184.18 599.54   L 184.11 623.47   Q 184.11 624.08 184.72 624.08   L 215.96 624.09   Z   M 428.0441 679.8349   A 73.85 71.32 7.7 0 0 364.4159 599.2631   A 73.85 71.32 7.7 0 0 281.6759 660.0451   A 73.85 71.32 7.7 0 0 345.3041 740.6169   A 73.85 71.32 7.7 0 0 428.0441 679.8349   Z   M 896.85 696.37   C 915.84 691.03 929.39 674.34 930.15 654.52   Q 931.19 627.68 910.86 610.93   C 898.47 600.72 885.36 599.46 870.50 599.37   Q 847.31 599.24 824.06 599.21   A 0.47 0.47 0.0 0 0 823.59 599.68   L 823.08 738.28   Q 823.07 740.49 825.28 740.49   L 847.15 740.50   A 1.16 1.15 -89.7 0 0 848.30 739.35   L 848.50 700.71   A 0.54 0.54 0.0 0 1 849.04 700.17   L 869.56 700.25   Q 870.09 700.26 870.35 700.71   L 892.53 739.24   A 1.72 1.70 -14.7 0 0 894.02 740.10   L 923.04 740.22   A 0.51 0.51 0.0 0 0 923.47 739.44   L 896.66 696.86   Q 896.43 696.49 896.85 696.37   Z   M 738.76 624.33   A 0.54 0.54 0.0 0 1 739.30 623.79   L 800.99 623.41   A 0.54 0.54 0.0 0 0 801.52 622.88   L 801.65 599.85   A 0.54 0.54 0.0 0 0 801.11 599.31   L 714.56 599.63   A 0.54 0.54 0.0 0 0 714.02 600.17   L 714.04 740.03   A 0.54 0.54 0.0 0 0 714.58 740.57   L 801.16 740.26   A 0.54 0.54 0.0 0 0 801.70 739.72   L 801.62 716.75   A 0.54 0.54 0.0 0 0 801.08 716.21   L 739.31 716.53   A 0.54 0.54 0.0 0 1 738.77 715.99   L 738.81 681.87   A 0.54 0.54 0.0 0 1 739.35 681.33   L 800.21 681.16   A 0.54 0.54 0.0 0 0 800.75 680.62   L 800.76 657.34   A 0.54 0.54 0.0 0 0 800.22 656.80   L 739.27 656.98   A 0.54 0.54 0.0 0 1 738.73 656.44   L 738.76 624.33   Z   M 610.49 665.76   L 611.34 600.29   A 0.55 0.55 0.0 0 0 610.79 599.74   L 586.20 599.66   Q 585.81 599.66 585.81 600.05   L 585.81 739.30   Q 585.81 739.78 586.30 739.78   L 610.38 739.74   Q 611.00 739.74 611.00 739.12   L 610.95 705.12   Q 610.95 704.68 611.22 704.34   L 626.57 685.13   A 0.30 0.30 0.0 0 1 627.05 685.15   L 663.80 739.76   A 1.46 1.45 72.7 0 0 665.03 740.41   L 693.02 740.22   A 0.53 0.53 0.0 0 0 693.47 739.43   Q 691.64 736.29 689.46 733.06   Q 666.96 699.81 643.93 666.99   A 1.59 1.58 -44.0 0 1 643.97 665.11   L 690.95 603.37   A 1.90 1.90 0.0 0 0 689.46 600.32   L 663.18 600.12   Q 662.37 600.11 661.88 600.75   Q 639.55 629.81 617.05 659.08   Q 614.35 662.60 611.43 666.10   A 0.53 0.53 0.0 0 1 610.49 665.76   Z"/>
  <path fill="#2c1202" d="   M 354.78 538.63   Q 347.39 537.19 340.36 535.81   A 1.21 1.20 -84.5 0 1 339.39 534.62   L 339.41 307.90   Q 339.41 307.34 339.96 307.26   Q 422.45 295.13 505.25 282.91   Q 509.95 282.22 519.22 283.52   C 575.40 291.43 622.05 297.66 668.63 305.94   C 674.13 306.92 678.86 307.32 684.11 307.32   A 0.75 0.74 -90.0 0 1 684.85 308.07   L 684.96 534.89   A 0.76 0.76 0.0 0 1 684.36 535.63   Q 602.48 552.67 520.17 568.67   C 518.21 569.05 513.62 570.73 511.98 570.39   Q 433.48 554.02 354.78 538.63   Z   M 393.98 313.90   C 414.69 317.36 435.43 320.66 456.07 324.57   Q 483.11 329.69 510.29 333.95   Q 513.25 334.41 514.51 334.22   C 555.31 327.91 595.97 320.43 636.73 313.96   A 0.17 0.17 0.0 0 0 636.73 313.62   Q 577.29 304.20 518.48 295.67   Q 511.76 294.70 503.25 295.92   Q 446.36 304.06 389.70 313.13   A 0.10 0.09 42.9 0 0 389.71 313.32   Q 391.80 313.54 393.98 313.90   Z   M 390.02 427.52   A 0.89 0.89 0.0 0 0 391.11 426.93   L 404.06 386.23   A 0.89 0.89 0.0 0 1 405.10 385.64   L 504.44 407.59   A 0.89 0.89 0.0 0 0 505.52 406.72   L 505.50 347.57   A 0.89 0.89 0.0 0 0 504.77 346.70   L 353.57 318.90   A 0.89 0.89 0.0 0 0 352.51 319.77   L 352.02 415.87   A 0.89 0.89 0.0 0 0 352.67 416.73   L 390.02 427.52   Z   M 617.33 388.01   Q 624.94 408.16 630.72 428.88   A 1.71 1.70 74.1 0 0 632.83 430.06   L 670.31 419.42   A 1.35 1.34 82.7 0 0 671.29 418.15   L 672.67 320.86   Q 672.69 319.47 671.32 319.71   L 518.69 345.97   A 0.63 0.63 0.0 0 0 518.17 346.59   L 518.25 407.30   A 0.52 0.52 0.0 0 0 518.86 407.81   Q 567.97 398.94 616.57 387.60   A 0.65 0.65 0.0 0 1 617.33 388.01   Z   M 406.43 482.45   L 372.52 476.68   Q 371.35 476.48 371.33 475.30   L 370.51 434.77   A 0.67 0.67 0.0 0 0 369.99 434.13   L 353.97 430.18   Q 352.55 429.84 352.55 431.29   L 352.38 524.35   A 0.67 0.66 5.9 0 0 352.91 525.00   L 505.28 556.05   A 0.55 0.55 0.0 0 0 505.94 555.51   L 505.69 421.79   A 1.49 1.48 -83.7 0 0 504.53 420.34   L 415.30 400.47   Q 414.80 400.36 414.62 400.84   Q 409.79 413.61 405.40 426.60   Q 404.60 428.96 404.84 431.49   Q 407.13 456.44 407.35 481.67   Q 407.36 482.61 406.43 482.45   Z   M 615.37 480.30   Q 617.53 457.76 617.93 435.12   Q 617.99 431.49 617.01 428.01   Q 613.42 415.26 609.18 402.83   A 0.81 0.80 74.8 0 0 608.26 402.30   L 519.46 420.65   A 1.16 1.15 -5.8 0 0 518.53 421.78   L 518.54 555.24   A 0.36 0.35 84.6 0 0 518.96 555.59   Q 595.30 541.24 671.35 525.40   Q 671.83 525.31 671.83 524.81   L 671.73 431.72   A 0.78 0.77 -8.4 0 0 670.73 430.98   L 654.10 436.02   A 0.71 0.71 0.0 0 0 653.60 436.67   L 651.86 477.98   A 0.75 0.74 -0.4 0 1 651.16 478.69   L 615.94 480.90   A 0.54 0.54 0.0 0 1 615.37 480.30   Z"/>
  <path fill="#e2654d" d="   M 393.98 313.90   Q 391.80 313.54 389.71 313.32   A 0.10 0.09 42.9 0 1 389.70 313.13   Q 446.36 304.06 503.25 295.92   Q 511.76 294.70 518.48 295.67   Q 577.29 304.20 636.73 313.62   A 0.17 0.17 0.0 0 1 636.73 313.96   C 595.97 320.43 555.31 327.91 514.51 334.22   Q 513.25 334.41 510.29 333.95   Q 483.11 329.69 456.07 324.57   C 435.43 320.66 414.69 317.36 393.98 313.90   Z"/>
  <path fill="#e2654d" d="   M 390.02 427.52   L 352.67 416.73   A 0.89 0.89 0.0 0 1 352.02 415.87   L 352.51 319.77   A 0.89 0.89 0.0 0 1 353.57 318.90   L 504.77 346.70   A 0.89 0.89 0.0 0 1 505.50 347.57   L 505.52 406.72   A 0.89 0.89 0.0 0 1 504.44 407.59   L 405.10 385.64   A 0.89 0.89 0.0 0 0 404.06 386.23   L 391.11 426.93   A 0.89 0.89 0.0 0 1 390.02 427.52   Z"/>
  <path fill="#783421" d="   M 617.33 388.01   A 0.65 0.65 0.0 0 0 616.57 387.60   Q 567.97 398.94 518.86 407.81   A 0.52 0.52 0.0 0 1 518.25 407.30   L 518.17 346.59   A 0.63 0.63 0.0 0 1 518.69 345.97   L 671.32 319.71   Q 672.69 319.47 672.67 320.86   L 671.29 418.15   A 1.35 1.34 82.7 0 1 670.31 419.42   L 632.83 430.06   A 1.71 1.70 74.1 0 1 630.72 428.88   Q 624.94 408.16 617.33 388.01   Z"/>
  <path fill="#e2654d" d="   M 406.43 482.45   Q 407.36 482.61 407.35 481.67   Q 407.13 456.44 404.84 431.49   Q 404.60 428.96 405.40 426.60   Q 409.79 413.61 414.62 400.84   Q 414.80 400.36 415.30 400.47   L 504.53 420.34   A 1.49 1.48 -83.7 0 1 505.69 421.79   L 505.94 555.51   A 0.55 0.55 0.0 0 1 505.28 556.05   L 352.91 525.00   A 0.67 0.66 5.9 0 1 352.38 524.35   L 352.55 431.29   Q 352.55 429.84 353.97 430.18   L 369.99 434.13   A 0.67 0.67 0.0 0 1 370.51 434.77   L 371.33 475.30   Q 371.35 476.48 372.52 476.68   L 406.43 482.45   Z"/>
  <path fill="#d04838" d="   M 615.94 480.90   L 651.16 478.69   A 0.75 0.74 -0.4 0 0 651.86 477.98   L 653.60 436.67   A 0.71 0.71 0.0 0 1 654.10 436.02   L 670.73 430.98   A 0.78 0.77 -8.4 0 1 671.73 431.72   L 671.83 524.81   Q 671.83 525.31 671.35 525.40   Q 595.30 541.24 518.96 555.59   A 0.36 0.35 84.6 0 1 518.54 555.24   L 518.53 421.78   A 1.16 1.15 -5.8 0 1 519.46 420.65   L 608.26 402.30   A 0.81 0.80 74.8 0 1 609.18 402.83   Q 613.42 415.26 617.01 428.01   Q 617.99 431.49 617.93 435.12   Q 617.53 457.76 615.37 480.30   A 0.54 0.54 0.0 0 0 615.94 480.90   Z"/>
  <path fill="#2c1202" d="   M 139.76 682.92   C 128.88 678.40 118.55 675.48 108.62 667.64   C 83.70 647.95 90.12 609.73 120.76 600.21   C 144.90 592.72 169.06 603.87 173.75 629.98   Q 174.30 633.08 174.19 640.79   Q 174.18 641.23 173.74 641.24   L 151.99 641.50   A 0.69 0.68 88.3 0 1 151.30 640.84   C 150.98 632.45 146.58 624.77 138.38 622.35   C 132.09 620.49 123.89 622.51 120.22 628.34   C 116.08 634.93 118.92 644.34 124.20 649.40   C 128.82 653.83 135.43 655.81 141.96 657.56   Q 147.76 659.11 154.68 662.98   Q 175.62 674.73 176.32 698.98   C 177.14 727.01 156.03 743.45 129.01 740.69   C 111.20 738.86 96.85 727.85 93.45 710.18   Q 92.09 703.08 92.59 695.72   Q 92.61 695.36 92.98 695.35   L 118.03 694.80   A 0.45 0.45 0.0 0 1 118.49 695.27   C 118.16 705.35 120.07 716.91 132.28 717.43   Q 137.52 717.65 141.61 716.40   C 150.47 713.69 153.93 703.45 151.45 695.00   Q 149.05 686.79 139.76 682.92   Z"/>
  <path fill="#2c1202" d="   M 472.08 649.81   C 458.59 680.04 478.92 716.27 512.84 717.67   C 527.67 718.28 542.25 711.80 553.49 702.62   A 0.82 0.82 0.0 0 1 554.68 702.78   Q 560.95 711.66 565.92 721.35   A 0.99 0.99 0.0 0 1 565.68 722.56   C 554.89 731.62 542.24 738.35 528.28 740.67   C 484.13 748.00 443.13 715.38 442.55 669.80   C 442.03 628.88 477.90 596.57 518.51 598.66   Q 545.21 600.03 566.43 617.41   Q 566.83 617.73 566.55 618.15   L 553.85 637.46   A 0.87 0.87 0.0 0 1 552.54 637.63   C 528.30 615.57 486.63 617.19 472.08 649.81   Z"/>
  <path fill="#2c1202" d="   M 215.96 624.09   L 184.72 624.08   Q 184.11 624.08 184.11 623.47   L 184.18 599.54   Q 184.18 599.00 184.71 599.00   L 274.43 599.18   A 0.50 0.49 90.0 0 1 274.92 599.68   L 274.97 623.64   Q 274.97 624.00 274.61 624.00   L 242.33 623.42   Q 241.69 623.41 241.70 624.05   Q 241.77 676.69 241.87 729.24   Q 241.88 734.56 241.18 739.12   A 1.47 1.46 4.5 0 1 239.72 740.36   L 217.28 740.11   A 0.84 0.83 0.3 0 1 216.45 739.28   L 216.58 624.71   A 0.62 0.62 0.0 0 0 215.96 624.09   Z"/>
  <path fill="#2c1202" d="   M 428.0441 679.8349   A 73.85 71.32 7.7 0 1 345.3041 740.6169   A 73.85 71.32 7.7 0 1 281.6759 660.0451   A 73.85 71.32 7.7 0 1 364.4159 599.2631   A 73.85 71.32 7.7 0 1 428.0441 679.8349   Z   M 343.91 623.98   C 319.54 628.68 304.93 648.02 306.62 672.73   Q 307.55 686.46 314.50 696.21   Q 325.57 711.73 343.07 715.75   C 378.05 723.79 407.94 695.94 402.19 660.56   Q 400.30 648.94 392.56 640.24   Q 373.10 618.36 343.91 623.98   Z"/>
  <path fill="#2c1202" d="   M 896.66 696.86   L 923.47 739.44   A 0.51 0.51 0.0 0 1 923.04 740.22   L 894.02 740.10   A 1.72 1.70 -14.7 0 1 892.53 739.24   L 870.35 700.71   Q 870.09 700.26 869.56 700.25   L 849.04 700.17   A 0.54 0.54 0.0 0 0 848.50 700.71   L 848.30 739.35   A 1.16 1.15 -89.7 0 1 847.15 740.50   L 825.28 740.49   Q 823.07 740.49 823.08 738.28   L 823.59 599.68   A 0.47 0.47 0.0 0 1 824.06 599.21   Q 847.31 599.24 870.50 599.37   C 885.36 599.46 898.47 600.72 910.86 610.93   Q 931.19 627.68 930.15 654.52   C 929.39 674.34 915.84 691.03 896.85 696.37   Q 896.43 696.49 896.66 696.86   Z   M 848.82 624.59   L 848.64 675.29   A 0.83 0.83 0.0 0 0 849.47 676.12   L 878.15 676.22   A 27.97 26.02 0.2 0 0 906.21 650.30   L 906.21 649.98   A 27.97 26.02 0.2 0 0 878.33 623.86   L 849.65 623.76   A 0.83 0.83 0.0 0 0 848.82 624.59   Z"/>
  <path fill="#2c1202" d="   M 738.76 624.33   L 738.73 656.44   A 0.54 0.54 0.0 0 0 739.27 656.98   L 800.22 656.80   A 0.54 0.54 0.0 0 1 800.76 657.34   L 800.75 680.62   A 0.54 0.54 0.0 0 1 800.21 681.16   L 739.35 681.33   A 0.54 0.54 0.0 0 0 738.81 681.87   L 738.77 715.99   A 0.54 0.54 0.0 0 0 739.31 716.53   L 801.08 716.21   A 0.54 0.54 0.0 0 1 801.62 716.75   L 801.70 739.72   A 0.54 0.54 0.0 0 1 801.16 740.26   L 714.58 740.57   A 0.54 0.54 0.0 0 1 714.04 740.03   L 714.02 600.17   A 0.54 0.54 0.0 0 1 714.56 599.63   L 801.11 599.31   A 0.54 0.54 0.0 0 1 801.65 599.85   L 801.52 622.88   A 0.54 0.54 0.0 0 1 800.99 623.41   L 739.30 623.79   A 0.54 0.54 0.0 0 0 738.76 624.33   Z"/>
  <path fill="#2c1202" d="   M 610.49 665.76   A 0.53 0.53 0.0 0 0 611.43 666.10   Q 614.35 662.60 617.05 659.08   Q 639.55 629.81 661.88 600.75   Q 662.37 600.11 663.18 600.12   L 689.46 600.32   A 1.90 1.90 0.0 0 1 690.95 603.37   L 643.97 665.11   A 1.59 1.58 -44.0 0 0 643.93 666.99   Q 666.96 699.81 689.46 733.06   Q 691.64 736.29 693.47 739.43   A 0.53 0.53 0.0 0 1 693.02 740.22   L 665.03 740.41   A 1.46 1.45 72.7 0 1 663.80 739.76   L 627.05 685.15   A 0.30 0.30 0.0 0 0 626.57 685.13   L 611.22 704.34   Q 610.95 704.68 610.95 705.12   L 611.00 739.12   Q 611.00 739.74 610.38 739.74   L 586.30 739.78   Q 585.81 739.78 585.81 739.30   L 585.81 600.05   Q 585.81 599.66 586.20 599.66   L 610.79 599.74   A 0.55 0.55 0.0 0 1 611.34 600.29   L 610.49 665.76   Z"/>
  <path fill="#98bba7" d="   M 306.62 672.73   C 304.93 648.02 319.54 628.68 343.91 623.98   Q 373.10 618.36 392.56 640.24   Q 400.30 648.94 402.19 660.56   C 407.94 695.94 378.05 723.79 343.07 715.75   Q 325.57 711.73 314.50 696.21   Q 307.55 686.46 306.62 672.73   Z"/>
  <path fill="#98bba7" d="   M 848.82 624.59   A 0.83 0.83 0.0 0 1 849.65 623.76   L 878.33 623.86   A 27.97 26.02 0.2 0 1 906.21 649.98   L 906.21 650.30   A 27.97 26.02 0.2 0 1 878.15 676.22   L 849.47 676.12   A 0.83 0.83 0.0 0 1 848.64 675.29   L 848.82 624.59   Z"/>
</svg>
